<?xml version="1.0" encoding="UTF-8"?> <svg xmlns="http://www.w3.org/2000/svg" width="1400" height="338" viewBox="0 0 1400 338" fill="none"> <path d="M518.036 332.23C516.503 332.23 515.292 331.801 514.402 330.942C513.513 330.083 513.068 328.903 513.068 327.4V319.81C513.068 318.307 513.513 317.127 514.402 316.268C515.292 315.409 516.503 314.98 518.036 314.98C519.539 314.98 520.735 315.417 521.624 316.291C522.514 317.15 522.958 318.323 522.958 319.81H520.888C520.888 318.859 520.635 318.123 520.129 317.602C519.639 317.081 518.941 316.82 518.036 316.82C517.132 316.82 516.419 317.081 515.897 317.602C515.391 318.123 515.138 318.852 515.138 319.787V327.4C515.138 328.351 515.391 329.087 515.897 329.608C516.403 330.129 517.116 330.39 518.036 330.39C518.941 330.39 519.639 330.129 520.129 329.608C520.635 329.087 520.888 328.351 520.888 327.4H522.958C522.958 328.887 522.514 330.068 521.624 330.942C520.735 331.801 519.539 332.23 518.036 332.23Z" fill="#FFDA6B"></path> <path d="M545.595 321.374C547.052 321.435 548.21 321.903 549.068 322.777C549.927 323.636 550.356 324.778 550.356 326.204V327.4C550.356 328.351 550.142 329.194 549.712 329.93C549.298 330.666 548.7 331.233 547.918 331.632C547.152 332.031 546.27 332.23 545.273 332.23C544.277 332.23 543.395 332.031 542.628 331.632C541.862 331.233 541.271 330.666 540.857 329.93C540.443 329.194 540.236 328.351 540.236 327.4H542.306C542.306 328.335 542.567 329.071 543.088 329.608C543.625 330.129 544.361 330.39 545.296 330.39C546.232 330.39 546.96 330.122 547.481 329.585C548.018 329.033 548.286 328.305 548.286 327.4V326.204C548.286 325.253 548.026 324.517 547.504 323.996C546.983 323.475 546.247 323.214 545.296 323.214H543.571V321.144L547.734 317.096H540.926V315.21H549.827V317.28L545.595 321.374Z" fill="#FFDA6B"></path> <path d="M567.956 332V315.21H570.67L572.418 320.638C572.694 321.497 572.947 322.355 573.177 323.214C573.392 322.355 573.63 321.489 573.89 320.615L575.546 315.21H578.26V332H576.236V325.905C576.236 324.632 576.305 323.122 576.443 321.374C576.581 319.611 576.75 317.901 576.949 316.245L574.235 324.64H572.05L569.313 316.245C569.497 317.84 569.651 319.511 569.773 321.259C569.911 323.007 569.98 324.556 569.98 325.905V332H567.956Z" fill="#FFDA6B"></path> <path d="M591.959 332H582.299V315.21H591.959V317.073H584.346V322.294H591.154V324.157H584.346V330.137H591.959V332Z" fill="#FFDA6B"></path> <path d="M600.782 332.23C599.249 332.23 598.038 331.801 597.148 330.942C596.259 330.083 595.814 328.903 595.814 327.4V319.81C595.814 318.307 596.259 317.127 597.148 316.268C598.038 315.409 599.249 314.98 600.782 314.98C602.285 314.98 603.481 315.417 604.37 316.291C605.26 317.15 605.704 318.323 605.704 319.81H603.634C603.634 318.859 603.381 318.123 602.875 317.602C602.385 317.081 601.687 316.82 600.782 316.82C599.878 316.82 599.165 317.081 598.643 317.602C598.137 318.123 597.884 318.852 597.884 319.787V327.4C597.884 328.351 598.137 329.087 598.643 329.608C599.149 330.129 599.862 330.39 600.782 330.39C601.687 330.39 602.385 330.129 602.875 329.608C603.381 329.087 603.634 328.351 603.634 327.4H605.704C605.704 328.887 605.26 330.068 604.37 330.942C603.481 331.801 602.285 332.23 600.782 332.23Z" fill="#FFDA6B"></path> <path d="M612.319 324.64C611.307 324.333 610.51 323.774 609.927 322.961C609.345 322.148 609.053 321.175 609.053 320.04C609.053 319.089 609.26 318.254 609.674 317.533C610.088 316.797 610.671 316.23 611.422 315.831C612.189 315.417 613.063 315.21 614.044 315.21H619.196V332H617.126V324.87H614.458L611.261 332H608.869L612.319 324.64ZM617.126 323.03V317.05H614.044C613.186 317.05 612.496 317.326 611.974 317.878C611.453 318.43 611.192 319.151 611.192 320.04C611.192 320.945 611.453 321.673 611.974 322.225C612.496 322.762 613.186 323.03 614.044 323.03H617.126Z" fill="#FFDA6B"></path> <path d="M634.367 335.22H632.527V332H623.534V315.21H625.604V330.16H630.572V315.21H632.642V330.16H634.367V335.22Z" fill="#FFDA6B"></path> <path d="M638.429 332H636.313L640.684 315.21H643.466L647.813 332H645.721L644.617 327.538H639.533L638.429 332ZM639.947 325.79H644.18L642.891 320.615C642.477 318.928 642.201 317.679 642.063 316.866C641.925 317.694 641.65 318.936 641.236 320.592L639.947 325.79Z" fill="#FFDA6B"></path> <rect x="0.5" y="267.5" width="8" height="8" fill="#01321F" stroke="#368048"></rect> <rect x="192.5" y="267.5" width="8" height="8" fill="#01321F" stroke="#368048"></rect> <rect x="384.5" y="267.5" width="8" height="8" fill="#01321F" stroke="#368048"></rect> <rect x="576.5" y="267.5" width="8" height="8" fill="#01321F" stroke="#FFDA6B"></rect> <rect x="768.5" y="267.5" width="8" height="8" fill="#01321F" stroke="#368048"></rect> <rect x="960.5" y="267.5" width="8" height="8" fill="#01321F" stroke="#368048"></rect> <rect x="559.287" y="292.213" width="41.4263" height="41.4263" transform="rotate(-90 559.287 292.213)" fill="#01321F" stroke="#FFDA6B"></rect> <rect x="1152.5" y="267.5" width="8" height="8" fill="#01321F" stroke="#368048"></rect> <path d="M679 104.5H780.5C791.546 104.5 800.5 95.5457 800.5 84.5V20.5C800.5 9.45431 809.454 0.5 820.5 0.5H1139.5C1150.55 0.5 1159.5 9.45431 1159.5 20.5V192.5C1159.5 203.546 1150.55 212.5 1139.5 212.5H820.5C809.454 212.5 800.5 203.546 800.5 192.5V119.5" stroke="#FFDA6B"></path> <circle cx="800.5" cy="122.5" r="3.5" fill="#FFDA6B"></circle> <circle cx="679.5" cy="104.5" r="3.5" fill="#FFDA6B"></circle> <rect x="580" y="175" width="1" height="75" fill="#368048"></rect> </svg> 